<svg xmlns="http://www.w3.org/2000/svg" viewBox="0 0 112 40" focusable="false" style="border-radius: 2px;"><title>GAMMA</title><path fill="#003978" d="M0 0h112v40H0z"></path><path fill="#FFF" d="M103 27.9H89c-.68 0-1.25-.57-1.25-1.3v-7.98c0-.72.57-1.3 1.26-1.3h6.4v2.64h-3.8v5.3h6.35v-10.6H91.6V12h10.16c.7 0 1.26.6 1.26 1.32v14.6M82.7 12h-14c-.7 0-1.25.6-1.25 1.32v14.6h3.8V14.64h2.55v5.3h2.54v-5.3h2.54V27.9h5.08V13.33c0-.73-.56-1.32-1.26-1.32m-20.33 0h-14c-.68 0-1.25.6-1.25 1.35v14.6h3.8v-13.3h2.55v5.3H56v-5.3h2.54V27.9h5.08V13.33c0-.73-.57-1.32-1.27-1.32M43.3 27.9h-14c-.7 0-1.25-.57-1.25-1.3v-7.98c0-.72.56-1.3 1.26-1.3h6.4v2.64h-3.8v5.3h6.35v-10.6H31.9V12h10.16c.7 0 1.26.6 1.26 1.32v14.6M16.62 17.3v2.66h3.8v5.3H14.1v-10.6h10.17V12h-14c-.7 0-1.25.6-1.25 1.32V26.6c0 .73.56 1.3 1.26 1.3h13.98V17.3h-7.62"></path></svg>